# xmcd CD database file
#
# Track frame offsets:
#	150
#	10333
#	25454
#	36006
#	48116
#	56992
#	66095
#	77423
#	92010
#	105012
#	117760
#	129050
#	140391
#	152796
#	163750
#	176334
#	188522
#	198161
#	208675
#	222953
#
# Disc length: 3127 seconds
#
# Revision: 4
# Processed by: cddbd v1.5.2PL0 Copyright (c) Steve Scherf et al.
# Submitted via: CDex 1.95
#
DISCID=fc0c3514
DTITLE=Various Artist - Golden Country Hits Vol22 Cd2
DYEAR=1999
DGENRE=Oldies
TTITLE0=Dottie West - Ain't Nothing Like A Woman
TTITLE1=Ferlin Husky - Little Tom
TTITLE2=Eddie Raven - Crazy
TTITLE3=Conway Twitty - Linda On My Mind
TTITLE4=Anne Murray - Paths Of Victory
TTITLE5=Hoyt Axton - I'll Be There
TTITLE6=Faron Young - Unmitigated Gall
TTITLE7=Don Williams - When I'm With You
TTITLE8=George Jones - Things Have Gone To Pieces
TTITLE9=John Brack and Jeff Turner - Marching Into Battle
TTITLE10=Barbara Fairchild - Y'all Come
TTITLE11=Bob Wills - Lilya Lou
TTITLE12=Danny Davis and The Nashville Brass - Write Myself A Letter
TTITLE13=Don Williams and Emelou Harris - Always Something There To Remaind Me
TTITLE14=Faron Young - It's Four In The Morning
TTITLE15=George Jones - My Favourite Lies
TTITLE16=Hoyt Axton - Never Gonna Work
TTITLE17=Stonewall Jackson - Things To Talk About
TTITLE18=George Jones - Who's Gonna Fill Their Shoes
TTITLE19=Freddy Fender - Donna
EXTD=YEAR: 1999
EXTT0=
EXTT1=
EXTT2=
EXTT3=
EXTT4=
EXTT5=
EXTT6=
EXTT7=
EXTT8=
EXTT9=
EXTT10=
EXTT11=
EXTT12=
EXTT13=
EXTT14=
EXTT15=
EXTT16=
EXTT17=
EXTT18=
EXTT19=
PLAYORDER=
